<?xml version="1.0" ?><!DOCTYPE svg  PUBLIC '-//W3C//DTD SVG 1.1//EN'  'http://www.w3.org/Graphics/SVG/1.1/DTD/svg11.dtd'><svg height="0.990276in" style="shape-rendering:geometricPrecision; text-rendering:geometricPrecision; image-rendering:optimizeQuality; fill-rule:evenodd; clip-rule:evenodd" version="1.1" viewBox="0 0 413 412" width="0.991323in" xml:space="preserve" xmlns="http://www.w3.org/2000/svg" xmlns:xlink="http://www.w3.org/1999/xlink"><defs><style type="text/css">
   <![CDATA[
    .str0 {stroke:black;stroke-width:2.89202}
    .fil1 {fill:black}
    .fil0 {fill:black;fill-rule:nonzero}
   ]]>
  </style></defs><g id="Layer_x0020_1"><g id="_520631376"><g><path class="fil0" d="M160 83l93 0c20,0 39,9 52,22 13,13 22,32 22,52l0 98c0,21 -9,39 -22,52 -13,14 -32,22 -52,22l-93 0c-20,0 -39,-8 -52,-22 -13,-13 -22,-31 -22,-52l0 -98c0,-20 9,-39 22,-52 13,-13 32,-22 52,-22zm93 21l-93 0c-15,0 -28,6 -38,16 -9,9 -15,23 -15,37l0 98c0,15 6,28 15,38 10,9 23,15 38,15l93 0c14,0 28,-6 37,-15 10,-10 16,-23 16,-38l0 -98c0,-14 -6,-28 -16,-37 -9,-10 -23,-16 -37,-16z"/><path class="fil0" d="M206 142c18,0 34,7 45,19 11,11 18,27 18,44 0,18 -7,33 -18,45 -11,11 -27,18 -45,18 -17,0 -33,-7 -44,-18 -12,-12 -19,-27 -19,-45 0,-17 7,-33 19,-44 11,-12 27,-19 44,-19zm30 33c-7,-7 -18,-12 -30,-12 -11,0 -22,5 -30,12 -7,8 -12,19 -12,30 0,12 5,23 12,30 8,8 19,13 30,13 12,0 23,-5 30,-13 8,-7 13,-18 13,-30 0,-11 -5,-22 -13,-30z"/><circle class="fil1" cx="275" cy="139" r="14"/></g><path class="fil1 str0" d="M411 207c-1,113 -92,204 -205,204 -113,0 -205,-92 -205,-205 0,-113 92,-205 205,-205l205 0 0 206 0 0zm-205 -184c101,0 183,82 183,183l0 1c0,101 -82,182 -183,182 -101,0 -183,-82 -183,-183 0,-101 82,-183 183,-183z"/></g></g></svg>